<svg version="1.1" id="Layer_1" xmlns="http://www.w3.org/2000/svg" xmlns:xlink="http://www.w3.org/1999/xlink" x="0px" y="0px"
	 width="100%" viewBox="0 0 200 69" enable-background="new 0 0 200 69" xml:space="preserve">
<path fill="#FDFDFD" opacity="1.000000" stroke="none" 
	d="
M187.017303,70.000000 
	C126.015083,70.000000 65.515648,69.964378 5.016574,70.094429 
	C1.627668,70.101715 0.860780,69.479469 0.896010,66.015396 
	C1.106167,45.351089 1.047344,24.683311 0.937395,4.017451 
	C0.924311,1.558171 1.441068,0.930346 3.982904,0.933655 
	C68.648773,1.017843 133.314789,1.015470 197.980667,0.940455 
	C200.432846,0.937610 201.084656,1.431646 201.069687,3.981093 
	C200.946320,24.980145 200.953903,45.980473 201.061966,66.979691 
	C201.074600,69.431877 200.588547,70.260132 198.015106,70.065437 
	C194.535049,69.802162 191.020126,70.000000 187.017303,70.000000 
z"/>
<path fill="#262C46" opacity="1.000000" stroke="none" 
	d="
M120.125229,42.796089 
	C116.018181,46.277775 111.571075,46.580246 108.144661,43.685333 
	C104.879372,40.926537 103.976067,37.440392 105.767067,33.451775 
	C108.300117,27.810614 116.390472,26.670574 120.397560,31.360443 
	C121.232895,32.338104 122.078613,33.306885 122.886360,34.637070 
	C122.316261,35.538609 121.663185,35.824715 120.546173,35.837528 
	C119.483597,35.603291 118.936348,35.204689 118.543228,34.208969 
	C118.422356,33.306736 119.261917,32.223228 117.384834,32.579628 
	C115.938126,32.788578 114.777657,32.499046 113.668549,32.847424 
	C111.561066,33.509392 110.358437,34.951191 110.440811,37.178669 
	C110.523247,39.408051 111.831482,40.763420 113.985268,41.250313 
	C115.107475,41.503998 116.257774,41.193226 117.744621,41.336185 
	C118.794174,41.612461 119.409126,41.971569 120.125229,42.796089 
z"/>
<path fill="#363C56" opacity="1.000000" stroke="none" 
	d="
M65.243828,33.381134 
	C65.716537,32.024719 66.329353,31.037617 66.797966,29.986240 
	C67.416306,28.598942 68.566368,28.559422 69.723724,28.820782 
	C71.089249,29.129150 70.692047,30.347233 70.705833,31.278408 
	C70.762482,35.103973 70.738197,38.931396 70.847115,42.755196 
	C70.890633,44.283188 70.730545,45.385464 68.816238,45.299183 
	C67.131096,45.223221 67.150230,44.138584 67.141525,42.889549 
	C67.126541,40.739956 66.987267,38.591228 66.504189,36.331490 
	C65.168930,35.601273 65.193016,34.677753 65.243828,33.381134 
z"/>
<path fill="#323653" opacity="1.000000" stroke="none" 
	d="
M135.764481,29.333157 
	C139.914520,29.995554 143.028030,31.873503 143.353821,36.332836 
	C143.701141,41.086834 141.341476,43.990993 136.354004,45.010826 
	C135.660324,44.585148 135.438126,44.174637 135.321304,43.352661 
	C139.325134,36.687080 139.325134,36.687080 135.424835,31.345387 
	C135.282288,30.522760 135.361206,30.059216 135.764481,29.333157 
z"/>
<path fill="#131834" opacity="1.000000" stroke="none" 
	d="
M95.118484,42.653568 
	C97.618614,42.719467 99.782188,42.694294 101.944496,42.735550 
	C102.772606,42.751350 103.686485,42.901237 103.670425,44.010773 
	C103.653198,45.201824 102.607742,45.021118 101.847672,45.171310 
	C101.687630,45.202934 101.514275,45.159794 101.349609,45.176430 
	C91.733543,46.148056 91.561104,46.143009 91.861977,36.359497 
	C91.936905,33.923084 89.884727,29.259598 93.246857,29.296509 
	C97.006477,29.337782 94.209641,34.042580 94.980682,36.568562 
	C95.305725,37.633385 95.030182,38.881527 94.970474,40.505966 
	C91.663406,39.074417 94.612526,36.012440 93.493622,34.073112 
	C94.037872,36.657860 92.303543,39.917194 95.118484,42.653568 
z"/>
<path fill="#262C46" opacity="1.000000" stroke="none" 
	d="
M166.100677,32.663250 
	C163.692490,36.109505 161.368622,39.173576 159.121063,42.573540 
	C157.872879,43.814384 156.712112,43.279472 155.277222,42.246834 
	C156.921051,38.189457 160.884689,35.846977 162.190704,31.415382 
	C164.240601,28.408913 165.002380,31.091015 166.100677,32.663250 
z"/>
<path fill="#242943" opacity="1.000000" stroke="none" 
	d="
M64.973480,33.318581 
	C66.063179,33.655117 66.032700,34.598721 66.079437,35.872978 
	C65.839592,36.800900 65.662384,37.449955 65.286011,37.948700 
	C63.887684,39.801636 63.566109,43.374298 61.119076,43.266548 
	C58.797905,43.164349 58.272079,39.724186 56.884232,37.417263 
	C57.060360,36.349300 57.587151,35.969822 58.625099,35.904785 
	C59.647697,36.901176 60.343124,37.796589 61.296860,39.024586 
	C62.552998,37.066593 63.666031,35.331661 64.973480,33.318581 
z"/>
<path fill="#0E1430" opacity="1.000000" stroke="none" 
	d="
M135.531158,28.969767 
	C135.975586,29.614752 135.962433,30.174759 135.926666,31.154827 
	C134.783615,32.268654 133.544556,32.196251 131.955444,32.108437 
	C131.123520,32.056999 130.446381,31.876740 130.202377,32.185993 
	C128.531006,34.304306 128.989944,39.742374 131.297592,41.963490 
	C132.847733,41.794239 134.050735,41.718826 135.568832,42.219574 
	C135.933624,42.952324 135.968689,43.519695 135.994888,44.513344 
	C126.872574,45.564026 126.872574,45.564026 126.862762,36.453903 
	C126.854523,28.800980 126.854523,28.800980 135.531158,28.969767 
z"/>
<path fill="#887E89" opacity="1.000000" stroke="none" 
	d="
M31.353928,44.596619 
	C30.263697,46.130669 32.447029,48.866871 28.979809,48.341438 
	C27.229757,42.700317 28.125984,37.312386 28.507698,31.536320 
	C31.507746,30.466400 31.856745,32.440712 31.903234,34.284389 
	C31.986382,37.581806 32.362053,40.905590 31.353928,44.596619 
z"/>
<path fill="#111530" opacity="1.000000" stroke="none" 
	d="
M150.267593,38.976860 
	C150.279434,40.627338 150.254318,41.786995 150.308243,42.942955 
	C150.368561,44.235752 150.215317,45.209377 148.526886,45.176929 
	C146.667130,45.141190 146.989716,43.841423 146.982040,42.746868 
	C146.955338,38.941746 146.942886,35.136154 146.977539,31.331221 
	C146.987183,30.271931 146.591293,28.923874 148.458878,28.851450 
	C150.607956,28.768112 150.262161,30.259775 150.270340,31.535780 
	C150.285217,33.851883 150.268829,36.168186 150.267593,38.976860 
z"/>
<path fill="#2F3455" opacity="1.000000" stroke="none" 
	d="
M172.764893,29.280785 
	C173.141785,28.842270 173.321564,28.818790 173.752472,28.899780 
	C174.619125,29.442659 175.279800,29.842377 175.268463,31.015945 
	C175.090515,32.547165 175.080017,33.737171 175.081619,35.285004 
	C175.423965,36.174591 175.549149,36.750896 175.263397,37.775658 
	C175.064178,39.417984 175.070847,40.656406 175.084167,42.266876 
	C175.423401,43.136658 175.544144,43.681355 175.226532,44.639496 
	C174.552673,45.078686 174.105392,45.151386 173.329620,45.121300 
	C172.128113,44.028492 172.012299,42.821644 172.011688,41.121826 
	C172.104416,37.002880 171.667313,33.315132 172.764893,29.280785 
z"/>
<path fill="#141835" opacity="1.000000" stroke="none" 
	d="
M166.350967,32.846092 
	C164.991913,31.921900 163.898254,30.906637 162.135437,30.882132 
	C159.307480,30.803492 155.062592,32.893097 154.529968,29.776402 
	C154.224228,27.987286 159.287277,29.362823 161.878204,28.838329 
	C162.826859,28.646290 163.859024,28.913710 164.839203,28.822428 
	C168.942001,28.440342 168.538223,30.181831 166.350967,32.846092 
z"/>
<path fill="#C1684D" opacity="1.000000" stroke="none" 
	d="
M42.277424,41.814125 
	C41.920155,42.558887 41.506351,43.709278 41.341873,43.390846 
	C40.541805,41.841908 41.800800,39.273396 38.914993,38.739399 
	C39.988377,38.216854 36.564209,34.732250 40.738438,36.039772 
	C41.412136,36.250801 39.742168,32.605141 42.940479,33.620964 
	C44.079006,35.243774 44.341675,36.796333 44.587578,38.700764 
	C44.626801,39.429714 44.633636,39.822456 44.579384,40.505096 
	C44.174911,41.826008 43.314651,41.650726 42.277424,41.814125 
z"/>
<path fill="#1E2545" opacity="1.000000" stroke="none" 
	d="
M76.246178,44.735298 
	C73.759163,42.511349 75.558922,39.568253 75.106476,36.465042 
	C77.054932,34.757526 77.784767,36.495766 78.974258,37.770340 
	C78.570847,39.377598 78.647446,40.673740 79.012070,42.367916 
	C79.178009,43.137951 79.270546,43.520306 79.124863,44.442513 
	C78.886635,44.982368 78.393204,45.046150 78.393204,45.046150 
	C78.393204,45.046150 77.973602,44.778481 77.846207,44.566277 
	C77.280777,44.174400 76.868355,44.211143 76.246178,44.735298 
z"/>
<path fill="#2B314D" opacity="1.000000" stroke="none" 
	d="
M119.431076,35.419884 
	C120.436768,35.096512 121.241692,35.050072 122.449898,34.999008 
	C123.866493,37.971752 122.521896,40.363899 120.631668,42.899460 
	C119.631599,42.819530 118.941216,42.537624 118.054123,41.929573 
	C117.624924,39.474148 118.727974,37.655293 119.431076,35.419884 
z"/>
<path fill="#393E5D" opacity="1.000000" stroke="none" 
	d="
M79.100571,38.088287 
	C77.525848,38.278793 77.096252,36.504288 75.498734,36.076225 
	C75.115479,34.618031 75.059875,33.208141 75.093887,31.382950 
	C76.480560,30.077610 77.705406,28.558752 79.207794,30.883455 
	C79.048897,32.495846 79.008873,33.716644 79.032242,35.302261 
	C79.423630,36.181450 79.549110,36.741215 79.271156,37.739300 
	C79.070198,38.132225 79.076065,38.064728 79.100571,38.088287 
z"/>
<path fill="#111530" opacity="1.000000" stroke="none" 
	d="
M154.723572,42.150421 
	C156.231110,41.907269 157.407303,42.142307 158.831207,42.883331 
	C161.515823,42.858765 163.834259,42.808105 166.586380,42.821163 
	C167.388321,43.306831 167.529541,43.794544 167.223083,44.677856 
	C163.636856,45.052906 160.271393,45.098091 156.453430,45.065628 
	C155.524338,44.523605 155.085983,44.027546 154.563721,43.174965 
	C154.419327,42.695351 154.445694,42.500259 154.723572,42.150421 
z"/>
<path fill="#0E1430" opacity="1.000000" stroke="none" 
	d="
M54.674831,37.774925 
	C54.926342,39.808388 54.961384,41.597061 55.030388,43.384426 
	C55.074757,44.533623 54.740284,45.173180 53.408195,45.179752 
	C51.953693,45.186920 51.913754,44.293911 51.912029,43.281887 
	C51.908428,41.165176 51.916359,39.048447 51.989914,36.476582 
	C53.519901,35.475647 53.803192,36.811565 54.674831,37.774925 
z"/>
<path fill="#E5AE9F" opacity="1.000000" stroke="none" 
	d="
M24.240585,40.599022 
	C20.077412,39.893951 19.688566,36.507492 23.448605,33.145943 
	C25.632082,35.339710 25.055122,37.781219 24.240585,40.599022 
z"/>
<path fill="#1A1C36" opacity="1.000000" stroke="none" 
	d="
M79.488388,31.257912 
	C78.202072,29.406784 76.945221,30.775824 75.506927,30.935131 
	C75.026535,29.962107 74.916542,28.949461 76.348999,28.862206 
	C77.487747,28.792843 78.676979,28.612223 79.765511,28.845823 
	C82.389801,29.409004 86.509537,27.141554 87.222687,30.304651 
	C87.555862,31.782379 82.466293,30.740910 79.488388,31.257912 
z"/>
<path fill="#262C46" opacity="1.000000" stroke="none" 
	d="
M58.906178,35.668766 
	C58.428787,36.287693 57.905308,36.569618 57.105049,36.961098 
	C56.415413,36.769310 56.002560,36.467964 55.329678,36.167946 
	C53.820049,35.509327 53.398449,34.222321 52.642525,32.724831 
	C52.521614,30.959490 52.438751,29.527056 54.840302,29.759872 
	C56.424328,31.734726 57.642208,33.533249 58.906178,35.668766 
z"/>
<path fill="#4F536B" opacity="1.000000" stroke="none" 
	d="
M172.507721,28.857765 
	C172.942108,32.482639 172.922211,36.099529 172.939972,40.151688 
	C172.860657,41.060661 172.560486,41.330688 171.770370,41.257904 
	C171.298080,37.011700 170.201767,32.859879 172.507721,28.857765 
z"/>
<path fill="#FFE6E2" opacity="1.000000" stroke="none" 
	d="
M31.335468,45.004410 
	C30.218342,40.269127 32.331333,35.258728 29.316378,30.367680 
	C28.809307,30.073187 28.866495,30.001089 28.912502,30.001759 
	C29.418261,29.570866 29.863726,29.117224 30.837700,28.984955 
	C31.154093,28.978418 31.586973,28.994843 31.803032,29.010124 
	C33.002808,34.033936 32.284618,39.088772 32.222912,44.547646 
	C32.016052,44.975170 31.562469,44.998249 31.335468,45.004410 
z"/>
<path fill="#111530" opacity="1.000000" stroke="none" 
	d="
M175.548035,31.298744 
	C174.816391,30.774950 174.531769,30.192738 174.125366,29.307386 
	C176.792206,28.951822 179.580688,28.882355 182.369568,28.856943 
	C183.251663,28.848906 184.035553,29.144848 183.870789,30.239120 
	C183.756668,30.997152 183.075073,31.182671 182.401230,31.191721 
	C180.266022,31.220398 178.130493,31.225876 175.548035,31.298744 
z"/>
<path fill="#111530" opacity="1.000000" stroke="none" 
	d="
M175.456207,45.074707 
	C175.015030,44.479935 175.030106,43.953876 175.067993,43.033375 
	C177.363693,42.692799 179.636932,42.734425 181.909225,42.806583 
	C182.814728,42.835339 184.065689,42.510632 183.981094,44.036579 
	C183.899841,45.502159 182.642532,45.112881 181.764297,45.134178 
	C179.814743,45.181454 177.863190,45.145466 175.456207,45.074707 
z"/>
<path fill="#131834" opacity="1.000000" stroke="none" 
	d="
M79.279953,45.067055 
	C78.912872,44.610622 78.939102,44.238873 79.025406,43.311363 
	C81.537224,42.766998 83.988983,42.781910 86.440758,42.787994 
	C87.365242,42.790287 88.055222,43.085579 87.932495,44.156433 
	C87.844139,44.927414 87.237045,45.146458 86.538025,45.147209 
	C84.249779,45.149670 81.961525,45.150372 79.279953,45.067055 
z"/>
<path fill="#FFF3EF" opacity="1.000000" stroke="none" 
	d="
M28.573418,30.061485 
	C28.809307,30.073187 28.878214,30.352945 28.888222,30.495220 
	C28.917383,36.117744 28.936537,41.597996 28.882248,47.541245 
	C28.639008,47.983032 28.469212,47.961823 28.046690,47.895752 
	C27.193453,42.228485 27.634441,36.591316 27.710205,30.517696 
	C27.865789,30.073864 28.337530,30.049782 28.573418,30.061485 
z"/>
<path fill="#BF7157" opacity="1.000000" stroke="none" 
	d="
M27.529013,30.323559 
	C27.892529,35.698673 27.919270,41.323483 27.869987,47.399593 
	C26.098417,42.143749 27.187634,36.339615 27.529013,30.323559 
z"/>
<path fill="#B96852" opacity="1.000000" stroke="none" 
	d="
M32.393818,44.771065 
	C32.013943,39.968277 32.011837,34.961380 32.014408,29.489944 
	C34.084671,34.118053 32.702480,39.377644 32.393818,44.771065 
z"/>
<path fill="#363C56" opacity="1.000000" stroke="none" 
	d="
M95.396721,42.417210 
	C94.028740,43.502213 92.970757,43.701378 93.009193,41.469246 
	C93.068672,38.015911 93.024879,34.560791 93.727203,31.073521 
	C93.931023,34.180817 94.134850,37.288116 94.625992,40.680500 
	C95.054832,41.349148 95.196365,41.732708 95.396721,42.417210 
z"/>
<path fill="#141835" opacity="1.000000" stroke="none" 
	d="
M175.500305,38.137390 
	C175.051300,37.615528 175.045090,37.051495 175.066284,36.065147 
	C175.418594,35.669022 175.752136,35.656723 176.066971,35.727573 
	C178.315979,36.233673 182.665756,34.778706 182.476059,36.709225 
	C182.179962,39.722786 178.196838,37.333027 175.500305,38.137390 
z"/>
<path fill="#21223B" opacity="1.000000" stroke="none" 
	d="
M79.503395,38.122414 
	C79.047394,37.583546 79.024590,37.034866 79.048714,36.076637 
	C80.877731,35.678036 82.661011,35.653858 84.441406,35.714500 
	C85.356476,35.745663 86.638306,35.606094 86.563950,36.989399 
	C86.490662,38.352837 85.207352,38.036755 84.310707,38.069412 
	C82.854080,38.122459 81.394768,38.102024 79.503395,38.122414 
z"/>
<path fill="#B47059" opacity="1.000000" stroke="none" 
	d="
M24.675026,33.400612 
	C24.911072,32.310059 25.018747,31.653767 25.126423,30.997477 
	C25.389383,30.980394 25.652342,30.963312 25.915302,30.946230 
	C25.915302,34.987919 25.945663,39.030262 25.858965,43.070091 
	C25.851854,43.401352 25.104706,43.526192 25.003910,42.787430 
	C24.958981,42.458145 24.924675,42.127419 24.827957,41.422806 
	C24.255388,38.657463 24.604675,36.239853 24.675026,33.400612 
z"/>
<path fill="#EA977F" opacity="1.000000" stroke="none" 
	d="
M44.958927,38.895569 
	C41.992714,38.327309 43.472816,36.179585 43.115112,34.295319 
	C45.500526,34.789558 46.535374,36.264725 44.958927,38.895569 
z"/>
<path fill="#282F4B" opacity="1.000000" stroke="none" 
	d="
M52.736168,33.195858 
	C54.589329,33.092369 55.024246,34.090958 55.049492,35.805222 
	C55.066605,36.586353 55.063560,37.003433 54.968704,37.720390 
	C53.702721,38.023048 53.107075,37.224545 52.312820,36.186386 
	C51.996056,35.566444 51.931839,35.111454 51.959564,34.320847 
	C52.179096,33.785053 52.306690,33.584873 52.736168,33.195858 
z"/>
<path fill="#8E8896" opacity="1.000000" stroke="none" 
	d="
M31.087112,28.585651 
	C30.865091,29.709438 30.612808,30.478722 29.282816,30.232647 
	C29.045717,28.412952 29.132923,26.823477 29.223227,25.177513 
	C31.741222,25.422878 30.656845,27.161663 31.087112,28.585651 
z"/>
<path fill="#111530" opacity="1.000000" stroke="none" 
	d="
M171.421890,41.490105 
	C171.801651,41.017117 172.139664,40.915459 172.727631,40.700382 
	C172.993301,41.772995 173.008972,42.959023 173.012909,44.581787 
	C170.103973,45.176277 171.827911,42.961319 171.421890,41.490105 
z"/>
<path fill="#FFE6E2" opacity="1.000000" stroke="none" 
	d="
M24.557335,32.994843 
	C24.850718,35.365120 24.898041,37.763885 24.857864,40.605461 
	C24.770365,41.048271 24.367846,41.028393 24.167625,41.003578 
	C23.942524,38.648697 23.917641,36.318634 23.859993,33.558693 
	C23.827229,33.128822 24.311275,33.023338 24.557335,32.994843 
z"/>
<path fill="#0E1430" opacity="1.000000" stroke="none" 
	d="
M53.029408,32.635532 
	C52.939739,33.326454 52.759743,33.590111 52.274788,33.891617 
	C52.963947,32.373444 49.277737,28.103365 55.019302,29.555553 
	C53.758686,30.036867 52.937237,30.725597 53.029408,32.635532 
z"/>
<path fill="#EA977F" opacity="1.000000" stroke="none" 
	d="
M42.352005,42.098957 
	C42.250561,40.895523 43.209538,41.122005 44.222191,40.855469 
	C44.779942,41.500263 45.242786,42.343819 44.279869,42.745235 
	C43.887276,42.908894 43.219791,42.413128 42.352005,42.098957 
z"/>
<path fill="#262C46" opacity="1.000000" stroke="none" 
	d="
M154.248688,43.191544 
	C154.884171,43.353558 155.375397,43.816669 155.933792,44.633881 
	C154.638580,45.415630 153.759140,45.230774 154.248688,43.191544 
z"/>
<path fill="#262C46" opacity="1.000000" stroke="none" 
	d="
M167.291779,45.089050 
	C167.017441,44.535988 167.032578,44.064251 167.033875,43.238701 
	C169.078598,43.187187 168.482620,44.141289 167.291779,45.089050 
z"/>
<path fill="#131834" opacity="1.000000" stroke="none" 
	d="
M76.367447,45.055641 
	C76.357040,44.726608 76.707512,44.482674 77.388397,44.296410 
	C77.388657,44.616295 77.058495,44.878517 76.367447,45.055641 
z"/>
<path fill="#F4F4F6" opacity="1.000000" stroke="none" 
	d="
M119.414536,34.955456 
	C120.235085,37.369804 119.491074,39.255486 118.004272,41.296844 
	C114.955780,43.027973 112.144829,43.488811 109.868797,40.537613 
	C108.165359,38.328842 108.113945,35.911697 109.725334,33.676514 
	C111.667709,30.982204 114.255989,30.643650 117.491631,32.281685 
	C118.069168,32.420425 118.295944,32.447372 118.557526,32.815102 
	C118.793961,33.693249 118.995590,34.230606 119.414536,34.955456 
z"/>
<path fill="#2B314D" opacity="1.000000" stroke="none" 
	d="
M118.828049,33.049324 
	C118.298103,33.160004 118.076126,33.035412 117.884384,32.587799 
	C118.087074,31.805206 118.451469,31.341331 119.075920,31.879463 
	C119.248871,32.028507 119.077278,32.577347 118.828049,33.049324 
z"/>
<path fill="#EFF0F2" opacity="1.000000" stroke="none" 
	d="
M130.650391,31.264442 
	C132.398788,31.263603 133.749603,31.354990 135.502258,31.510632 
	C141.359131,35.109543 141.522095,38.206783 136.176407,42.207832 
	C134.550919,42.505009 133.203262,42.625072 131.449402,42.778961 
	C130.483353,42.753292 130.009018,42.519970 129.426270,41.756554 
	C128.829285,38.734985 129.027817,36.058353 129.156021,32.985336 
	C129.440826,32.067787 129.781769,31.658155 130.650391,31.264442 
z"/>
<path fill="#3B435E" opacity="1.000000" stroke="none" 
	d="
M129.803299,41.681301 
	C130.345963,42.081425 130.611023,42.220505 130.947815,42.608734 
	C130.198608,43.867584 128.664780,44.459373 128.403503,43.005405 
	C127.680161,38.980309 127.603165,34.832348 128.482422,30.788900 
	C128.663803,29.954786 129.820160,30.087406 130.825928,30.865759 
	C131.000122,31.512217 130.812180,31.732920 130.272980,31.920723 
	C128.807144,35.070518 129.754044,38.254345 129.803299,41.681301 
z"/>
<path fill="#363C56" opacity="1.000000" stroke="none" 
	d="
M148.012909,32.753693 
	C148.072464,32.034512 148.110611,31.709225 148.186707,31.393078 
	C148.321350,30.833910 148.666397,30.802540 148.726501,31.342579 
	C149.160049,35.237099 149.185883,39.130108 148.008575,43.018963 
	C148.008575,39.729877 148.008575,36.440792 148.012909,32.753693 
z"/>
<path fill="#141835" opacity="1.000000" stroke="none" 
	d="
M130.057800,41.534462 
	C128.083771,38.947601 129.016464,35.714485 129.744553,32.261597 
	C130.060654,35.031910 130.059494,38.056705 130.057800,41.534462 
z"/>
</svg>