<svg version="1.1" id="Layer_1" xmlns="http://www.w3.org/2000/svg" xmlns:xlink="http://www.w3.org/1999/xlink" x="0px" y="0px"
	 width="100%" viewBox="0 0 400 200" enable-background="new 0 0 400 200" xml:space="preserve">
<path fill="#222127" opacity="1.000000" stroke="none" 
	d="
M372.000000,201.000000 
	C249.550827,201.000000 127.601624,200.970169 5.652647,201.124359 
	C1.395153,201.129730 0.891366,200.011200 0.899892,196.156219 
	C1.040657,132.516403 1.039080,68.876083 0.898406,5.236249 
	C0.890361,1.596605 1.688722,0.902458 5.260516,0.905535 
	C135.706055,1.017903 266.151733,1.022713 396.597198,0.891677 
	C400.560394,0.887696 401.090973,2.022742 401.084473,5.593725 
	C400.968231,69.400246 400.964203,133.207123 401.098236,197.013565 
	C401.105469,200.461578 400.404541,201.233612 396.985626,201.101532 
	C388.834625,200.786636 380.663177,201.000000 372.000000,201.000000 
z"/>
<path fill="#989FA0" opacity="1.000000" stroke="none" 
	d="
M168.951523,109.727737 
	C168.554749,106.456650 170.202591,102.056557 167.152344,100.850067 
	C164.140930,99.658936 163.036865,104.325539 161.124161,106.382965 
	C156.534622,111.319748 154.371155,111.382034 150.061813,106.107224 
	C149.851593,105.849907 149.651642,105.580399 149.415268,105.348877 
	C147.480713,103.454048 146.302216,99.242317 143.669479,100.027023 
	C140.927597,100.844254 142.827148,104.673637 142.757660,107.183289 
	C142.718521,108.596725 142.572372,109.996452 141.088501,110.460625 
	C139.344498,111.006165 137.260788,111.349388 135.774139,110.338356 
	C134.281937,109.323532 136.250595,108.036530 136.345917,106.830048 
	C136.665268,102.787956 138.307693,98.635887 135.722916,94.772446 
	C134.288803,92.628891 135.503174,92.150658 137.305695,92.029625 
	C142.953323,91.650436 147.568710,93.246613 151.250687,97.988480 
	C156.196503,104.358047 156.602219,104.352798 161.943024,98.415466 
	C165.734222,94.200821 169.787262,91.353439 175.728043,92.131065 
	C177.650742,92.382736 178.650513,92.289986 177.694061,95.051041 
	C175.966492,100.038170 176.330719,105.222740 179.104706,110.291885 
	C175.704849,111.030647 172.464249,110.621696 168.951523,109.727737 
z"/>
<path fill="#9BA1A2" opacity="1.000000" stroke="none" 
	d="
M266.692535,100.588013 
	C270.880768,97.298500 275.455933,97.856888 280.349976,97.876328 
	C282.258148,97.180695 282.012970,95.877480 281.784424,94.297806 
	C281.547058,93.884026 281.389160,93.777962 281.076294,93.432281 
	C280.604248,92.837982 280.471466,92.424133 280.775696,91.719711 
	C289.430420,90.098869 289.759338,90.453079 290.040863,98.655190 
	C290.175720,102.583504 288.993744,106.873146 292.826630,110.225021 
	C288.619568,111.974854 284.695557,110.718521 280.427002,110.728828 
	C279.646667,110.400948 279.350647,110.044746 279.093689,109.273331 
	C278.999847,107.784943 279.118591,106.627510 278.872650,105.499329 
	C278.657715,104.513451 278.273438,103.596474 277.162537,103.314499 
	C276.656311,103.186005 276.125610,103.355766 275.929779,103.846756 
	C275.478638,104.977821 276.186768,105.693726 277.001282,106.293877 
	C277.778015,106.866158 278.773712,107.217216 278.928741,108.725510 
	C278.903656,109.572121 278.747070,110.021591 278.244629,110.710739 
	C274.832855,111.568977 271.728790,111.470612 268.374756,109.940201 
	C267.457916,109.332535 266.908142,108.919884 266.085388,108.302292 
	C265.790253,108.126091 265.869812,108.121483 265.872070,108.161270 
	C263.287933,105.554573 263.619232,103.102249 266.692535,100.588013 
z"/>
<path fill="#989FA0" opacity="1.000000" stroke="none" 
	d="
M250.117157,111.049644 
	C245.238708,111.365112 240.753067,111.658104 236.553665,109.617233 
	C234.399017,108.570084 232.537918,107.226791 232.616394,104.438034 
	C232.692108,101.748131 234.344452,100.168678 236.584610,99.236870 
	C242.298645,96.860092 248.158936,96.651512 254.050095,98.556061 
	C256.824371,99.452950 259.441528,100.772827 259.594299,104.139656 
	C259.752716,107.631546 256.968506,108.826073 254.331345,109.914810 
	C253.118698,110.415443 251.796143,110.649857 250.117157,111.049644 
z"/>
<path fill="#809593" opacity="1.000000" stroke="none" 
	d="
M110.811653,97.204758 
	C114.937134,94.538086 116.411316,96.093063 116.335846,100.238083 
	C116.311729,101.562462 116.420509,102.892044 116.344330,104.212074 
	C116.216248,106.431549 117.196404,109.123314 114.634125,110.503799 
	C112.204704,111.812729 111.958710,107.966034 109.970161,108.030838 
	C108.779808,108.740822 109.169968,109.858574 109.056931,110.780876 
	C108.886871,112.168411 108.219971,112.874489 106.801010,112.842209 
	C105.315392,112.808411 104.841431,111.804802 104.665108,110.575394 
	C104.571716,109.924271 104.584190,109.251831 104.607643,108.591103 
	C104.721535,105.381325 104.584091,102.753174 100.715660,106.369659 
	C100.298416,106.759727 99.171829,106.391045 98.058807,106.244400 
	C96.055710,103.094315 96.430389,99.946716 97.438950,96.325684 
	C98.510498,95.686859 99.309380,95.499130 100.417709,95.341866 
	C102.326752,96.452095 103.575645,96.129158 104.669098,94.162857 
	C107.977982,91.915817 109.055161,93.333176 109.134911,96.801086 
	C109.575768,97.636246 110.051491,97.766159 110.811653,97.204758 
z"/>
<path fill="#989FA0" opacity="1.000000" stroke="none" 
	d="
M188.034637,109.159904 
	C183.696671,104.694191 184.193665,101.228790 189.426804,99.061256 
	C194.849762,96.815102 200.462692,96.731827 205.999146,98.785988 
	C207.549835,99.361336 209.227783,100.248734 209.145721,102.237671 
	C209.041367,104.766914 206.777466,104.163773 205.313995,104.325882 
	C202.509064,104.636612 199.668137,104.608955 196.846146,104.785683 
	C195.745636,104.854607 194.123077,104.485558 193.883163,105.913368 
	C193.598312,107.608604 195.323776,108.077599 196.545364,108.253311 
	C199.799759,108.721428 203.091705,108.928612 206.365311,109.668571 
	C200.359909,111.786575 194.356018,112.001038 188.034637,109.159904 
z"/>
<path fill="#9BA1A2" opacity="1.000000" stroke="none" 
	d="
M353.582642,111.169685 
	C352.189056,110.993423 351.165131,110.971298 350.232666,110.667961 
	C346.917236,109.589462 343.035919,108.695564 343.289520,104.191833 
	C343.532288,99.880577 347.306915,98.819580 350.718109,98.078354 
	C355.126709,97.120399 359.615448,96.930328 363.936981,98.688065 
	C365.673401,99.394348 367.535767,100.451424 367.285034,102.517326 
	C367.021515,104.688820 364.759369,104.278770 363.217316,104.410500 
	C360.412720,104.650078 357.586029,104.618584 354.773590,104.784927 
	C353.692047,104.848900 352.096863,104.556267 351.991455,106.111031 
	C351.902191,107.428230 353.317505,107.783737 354.413330,108.225868 
	C358.113220,109.718651 361.906433,108.063637 367.145538,108.551880 
	C362.238800,111.699150 358.041962,111.109489 353.582642,111.169685 
z"/>
<path fill="#979E9F" opacity="1.000000" stroke="none" 
	d="
M217.043610,96.489761 
	C217.360550,94.089478 215.428696,93.404434 214.443649,91.816063 
	C216.990295,90.330276 219.641357,90.816177 222.176743,90.756439 
	C224.062378,90.712013 224.601791,91.940971 224.829224,93.646164 
	C225.537949,98.959808 223.436081,104.605530 226.828583,109.638969 
	C227.411423,110.503738 226.168640,110.984322 225.336411,110.971100 
	C221.918549,110.916786 218.450500,111.550568 214.660980,110.392570 
	C218.197632,106.193581 216.877518,101.443649 217.043610,96.489761 
z"/>
<path fill="#9BA1A2" opacity="1.000000" stroke="none" 
	d="
M319.999329,106.565582 
	C322.849213,104.550949 325.367279,102.769852 328.469177,100.575768 
	C325.038727,99.253914 322.667694,100.224907 320.234192,101.003899 
	C319.099518,101.367119 317.461731,102.202644 317.154144,100.024498 
	C316.897095,98.204063 318.264465,97.816177 319.702942,97.810532 
	C325.799744,97.786613 331.896667,97.800385 338.604858,97.800385 
	C336.727051,102.239403 332.609985,103.051941 330.079712,105.586388 
	C329.050934,106.616890 326.190857,106.664680 327.941620,109.489937 
	C328.801788,110.878029 327.182800,110.925598 326.344238,110.976402 
	C324.528595,111.086426 322.701111,111.087090 320.882050,111.025543 
	C319.611725,110.982567 317.833618,111.523232 317.292328,110.096725 
	C316.605713,108.287476 318.725555,107.820808 319.999329,106.565582 
z"/>
<path fill="#979E9F" opacity="1.000000" stroke="none" 
	d="
M309.285156,107.429749 
	C309.690002,108.891281 313.128418,110.362923 309.385071,110.922440 
	C305.895813,111.443977 302.267273,111.033875 297.788544,111.033875 
	C301.890442,106.459244 302.544067,102.593521 298.084259,98.641174 
	C300.983002,97.465675 303.615814,97.731133 306.197083,97.709427 
	C308.105499,97.693375 308.721771,98.881378 308.782623,100.608009 
	C308.858276,102.754227 309.024811,104.897240 309.285156,107.429749 
z"/>
<path fill="#9D6F7D" opacity="1.000000" stroke="none" 
	d="
M68.902847,86.997818 
	C69.596512,84.756210 68.905685,82.245949 72.535706,82.050552 
	C75.657364,89.114357 74.795845,96.515694 75.094849,103.788345 
	C75.305687,108.916672 74.405190,113.969284 73.245667,119.451996 
	C69.922371,120.288162 69.370468,118.463531 69.398506,115.699020 
	C67.683311,114.970703 67.600822,113.428230 67.585175,112.293060 
	C67.475868,104.361420 67.356766,96.426323 67.769295,88.496445 
	C67.799446,87.916786 68.160500,87.642097 68.902847,86.997818 
z"/>
<path fill="#5B414C" opacity="1.000000" stroke="none" 
	d="
M73.200249,119.735245 
	C72.933784,107.593903 72.975006,95.299301 72.969650,82.543365 
	C75.606461,83.129623 74.162140,86.622299 76.718307,88.105667 
	C79.916779,90.472816 78.867256,93.607803 78.847061,96.407776 
	C78.807198,101.933701 79.870880,107.535614 77.505318,113.338661 
	C74.206215,114.648399 75.511673,118.122856 73.200249,119.735245 
z"/>
<path fill="#7B8F8E" opacity="1.000000" stroke="none" 
	d="
M83.066513,94.521866 
	C85.856941,93.314476 87.653206,93.559853 88.380768,96.393425 
	C88.799622,98.024643 89.810699,98.463379 91.706711,97.556213 
	C93.449554,99.487495 93.949799,101.591995 92.430191,104.193878 
	C90.393265,103.953255 88.888611,103.570419 88.258659,105.958549 
	C87.684616,108.134750 86.196846,108.790337 83.796112,107.817902 
	C79.938240,103.625961 81.244049,99.195160 83.066513,94.521866 
z"/>
<path fill="#4F585B" opacity="1.000000" stroke="none" 
	d="
M63.254265,116.672485 
	C60.817680,116.167450 61.869324,113.183746 59.403725,112.195450 
	C56.349968,109.870575 57.251091,106.923332 57.284233,104.062119 
	C57.335686,99.620117 55.934685,95.094780 58.674358,90.381187 
	C61.622818,89.376801 60.990547,86.641678 62.594086,85.080566 
	C65.880836,88.566299 64.325081,92.889473 64.343834,96.862366 
	C64.374313,103.319695 65.384644,109.852463 63.254265,116.672485 
z"/>
<path fill="#879F9E" opacity="1.000000" stroke="none" 
	d="
M77.468384,113.802750 
	C77.073082,105.533913 77.067276,97.349380 77.052963,88.718857 
	C81.707466,87.187225 80.746765,90.681099 81.097610,93.564339 
	C82.709473,98.329308 81.990372,102.777649 81.408920,107.622711 
	C80.233421,110.083076 82.609322,113.995468 77.468384,113.802750 
z"/>
<path fill="#879F9E" opacity="1.000000" stroke="none" 
	d="
M63.249664,117.152939 
	C62.888721,106.680069 62.907139,96.269638 62.899597,85.385239 
	C63.719841,84.801231 64.566040,84.691200 65.828537,84.707558 
	C68.106369,89.277962 67.263138,93.901459 67.290283,98.497490 
	C67.325035,104.379807 67.941048,110.264404 66.294189,116.507172 
	C65.153572,117.017250 64.391296,117.116318 63.249664,117.152939 
z"/>
<path fill="#4F585B" opacity="1.000000" stroke="none" 
	d="
M66.290001,116.839676 
	C66.018524,106.543198 66.121208,96.168205 66.234367,85.313583 
	C67.081360,85.344948 67.917892,85.855949 69.077690,86.559433 
	C69.458588,95.999504 69.516220,105.247093 69.482254,114.897224 
	C68.481819,115.786903 67.572990,116.274033 66.290001,116.839676 
z"/>
<path fill="#89A5A1" opacity="1.000000" stroke="none" 
	d="
M58.717888,89.760452 
	C59.075169,96.999504 59.056973,104.058159 59.067688,111.588379 
	C55.360737,113.757469 55.376999,111.121330 55.130451,108.346649 
	C52.567646,103.700066 53.096134,99.280052 54.778912,94.411911 
	C55.610352,92.128815 54.667370,89.131302 58.717888,89.760452 
z"/>
<path fill="#879F9E" opacity="1.000000" stroke="none" 
	d="
M40.651852,98.359451 
	C41.648830,96.091522 40.069973,92.743774 44.545906,93.036758 
	C48.253193,97.907616 47.401039,102.996140 45.342026,108.544617 
	C39.172287,111.681282 41.961163,106.569672 41.043068,104.397202 
	C39.402866,102.410637 39.127796,100.657692 40.651852,98.359451 
z"/>
<path fill="#41484B" opacity="1.000000" stroke="none" 
	d="
M45.314659,108.916931 
	C44.972828,103.962990 45.010582,98.964577 44.991505,93.505219 
	C46.168663,93.409546 47.402657,93.774841 49.010559,94.244980 
	C51.926037,98.403847 51.310524,102.622353 49.685181,107.286819 
	C48.120296,108.089828 46.907269,108.481148 45.314659,108.916931 
z"/>
<path fill="#89A5A1" opacity="1.000000" stroke="none" 
	d="
M49.629620,107.685318 
	C48.514866,103.545074 48.712311,99.375702 49.260910,94.776291 
	C50.315876,94.542755 51.247276,94.735695 52.442516,95.050941 
	C55.170784,98.704132 53.903370,102.491623 53.087906,106.522652 
	C51.781776,107.106224 50.853848,107.389175 49.629620,107.685318 
z"/>
<path fill="#959C9D" opacity="1.000000" stroke="none" 
	d="
M304.908783,95.308258 
	C303.091766,95.019432 301.033081,95.664566 300.736664,93.288849 
	C300.576447,92.004662 301.781464,91.746704 302.708801,91.522308 
	C304.650604,91.052437 307.123840,90.543327 308.130096,92.428146 
	C309.629272,95.236206 306.777161,94.874146 304.908783,95.308258 
z"/>
<path fill="#809593" opacity="1.000000" stroke="none" 
	d="
M119.004532,99.739853 
	C119.921005,97.766563 121.191147,97.170799 122.589668,98.605576 
	C123.723793,99.769096 123.479980,101.402390 122.968651,102.837608 
	C122.589348,103.902306 121.577644,104.347565 120.545074,104.112968 
	C118.136658,103.565788 119.071930,101.564926 119.004532,99.739853 
z"/>
<path fill="#879F9E" opacity="1.000000" stroke="none" 
	d="
M39.075653,103.554352 
	C37.647640,104.458366 36.589657,105.100960 35.043724,104.355072 
	C33.744129,102.412628 33.863468,100.551193 34.569771,98.241196 
	C35.931545,96.931877 37.053864,97.173813 38.440907,98.003906 
	C40.519741,99.623283 40.159874,101.412491 39.075653,103.554352 
z"/>
<path fill="#343539" opacity="1.000000" stroke="none" 
	d="
M81.552002,107.996246 
	C80.358894,103.659035 80.745277,99.261108 81.035126,94.416130 
	C81.689285,94.026909 82.210823,94.089218 83.120926,94.217949 
	C83.520538,98.468987 83.531593,102.653610 83.522438,107.282501 
	C82.982819,107.804115 82.463409,107.881439 81.552002,107.996246 
z"/>
<path fill="#41484B" opacity="1.000000" stroke="none" 
	d="
M97.434509,95.993027 
	C97.733398,98.977959 97.755180,102.081337 97.760147,105.649597 
	C96.882286,105.688980 96.021240,105.263489 94.834717,104.681351 
	C93.273232,102.663315 93.233269,100.756134 94.628433,98.490601 
	C95.696838,97.486656 96.427124,96.799065 97.434509,95.993027 
z"/>
<path fill="#343539" opacity="1.000000" stroke="none" 
	d="
M52.995056,106.983994 
	C52.651806,103.233276 52.593906,99.643272 52.621181,95.613266 
	C53.286270,94.870674 53.866184,94.568100 54.745041,94.132736 
	C55.865631,98.351624 55.448311,102.729256 55.184227,107.549210 
	C54.460087,107.713280 53.870247,107.429001 52.995056,106.983994 
z"/>
<path fill="#4F585B" opacity="1.000000" stroke="none" 
	d="
M104.522812,94.045670 
	C104.925087,94.382462 105.105164,94.887924 105.041710,95.360703 
	C104.803238,97.137772 106.146835,99.943779 103.340721,100.244011 
	C100.771088,100.518929 101.667931,97.556396 100.833977,95.723389 
	C101.881050,94.981331 103.034935,94.590324 104.522812,94.045670 
z"/>
<path fill="#879F9E" opacity="1.000000" stroke="none" 
	d="
M94.648621,97.955505 
	C94.828598,100.027214 94.690636,101.880173 94.530960,104.128914 
	C93.888695,104.582405 93.268143,104.640121 92.349335,104.603508 
	C92.051758,102.462486 92.052437,100.415779 92.076050,97.923218 
	C92.842880,97.563828 93.586777,97.650291 94.648621,97.955505 
z"/>
<path fill="#959C9D" opacity="1.000000" stroke="none" 
	d="
M266.735352,100.469902 
	C265.895294,102.618294 264.992828,104.909691 265.826874,107.847900 
	C262.882965,105.417816 263.704437,102.923233 266.735352,100.469902 
z"/>
<path fill="#959C9D" opacity="1.000000" stroke="none" 
	d="
M335.722168,109.126129 
	C336.019989,107.260696 336.950195,106.835037 338.294952,107.082405 
	C339.075989,107.226105 339.294128,107.888672 339.264130,108.579361 
	C339.193085,110.214233 338.191681,110.882256 336.328430,110.902893 
	C335.576111,110.476929 335.416412,110.010330 335.722168,109.126129 
z"/>
<path fill="#9BA1A2" opacity="1.000000" stroke="none" 
	d="
M335.549225,108.811462 
	C335.944916,109.253761 335.957581,109.711586 335.980713,110.512772 
	C333.618774,110.956787 331.196045,111.561440 328.678589,110.198952 
	C330.662933,107.964348 333.125824,109.380249 335.549225,108.811462 
z"/>
<path fill="#41484B" opacity="1.000000" stroke="none" 
	d="
M110.548050,97.041550 
	C111.262245,99.232231 111.644974,101.474197 110.301895,104.164291 
	C108.219963,101.986336 108.932083,99.834435 109.054199,97.496536 
	C109.470345,97.125832 109.778259,97.101692 110.548050,97.041550 
z"/>
<path fill="#343539" opacity="1.000000" stroke="none" 
	d="
M39.089516,103.888077 
	C38.668476,102.220619 38.623470,100.585693 38.644939,98.546509 
	C39.213753,98.102882 39.716095,98.063515 40.596046,98.009033 
	C41.059364,99.720375 41.145077,101.446846 41.101727,103.589668 
	C40.470291,103.977554 39.967918,103.949089 39.089516,103.888077 
z"/>
<path fill="#5A6467" opacity="1.000000" stroke="none" 
	d="
M34.511559,97.999344 
	C34.817673,99.638832 34.840668,101.455482 34.829468,103.725327 
	C32.686539,102.359161 33.111889,100.300476 34.511559,97.999344 
z"/>
<path fill="#959C9D" opacity="1.000000" stroke="none" 
	d="
M281.774628,94.416428 
	C282.956879,95.366966 283.058197,96.626053 281.054962,97.811172 
	C281.695221,97.089256 282.179749,96.106995 281.774628,94.416428 
z"/>
<path fill="#959C9D" opacity="1.000000" stroke="none" 
	d="
M265.931580,108.375740 
	C266.419220,108.513176 267.048218,108.900253 267.845093,109.512848 
	C267.366272,109.367371 266.719574,108.996376 265.931580,108.375740 
z"/>
<path fill="#959C9D" opacity="1.000000" stroke="none" 
	d="
M279.672119,108.843124 
	C280.010284,109.458946 280.012665,109.813499 280.015686,110.432823 
	C279.573425,110.814178 279.130524,110.930779 278.343323,111.015564 
	C277.996552,110.617493 277.994080,110.251213 277.989685,109.610458 
	C278.253510,108.756058 278.703064,108.504784 279.672119,108.843124 
z"/>
<path fill="#959C9D" opacity="1.000000" stroke="none" 
	d="
M280.781433,91.486755 
	C281.007202,91.867180 280.985992,92.246094 280.943054,92.908836 
	C279.602997,92.893105 278.945923,92.443657 280.781433,91.486755 
z"/>
<path fill="#2E2F34" opacity="1.000000" stroke="none" 
	d="
M280.307922,108.861847 
	C279.553986,109.120644 279.100067,109.136902 278.316895,109.244576 
	C277.008270,109.189217 275.985382,109.174873 275.057678,108.870461 
	C272.429077,108.007942 270.587769,106.333519 271.346344,103.358963 
	C272.206512,99.985817 275.080109,99.402512 278.028076,99.579758 
	C281.036072,99.760597 282.325195,101.588203 282.156494,104.593842 
	C282.069611,106.141830 281.818726,107.542946 280.307922,108.861847 
z"/>
<path fill="#2C2C31" opacity="1.000000" stroke="none" 
	d="
M240.498047,101.833206 
	C241.041626,101.140083 241.334885,100.703728 241.740524,100.440681 
	C244.632339,98.565437 247.505264,98.851463 249.973236,101.066811 
	C251.794937,102.702049 251.784225,105.132011 250.638138,107.041634 
	C249.027390,109.725433 246.233826,109.824493 243.558777,108.892982 
	C240.373062,107.783630 239.299911,105.423241 240.498047,101.833206 
z"/>
<path fill="#343539" opacity="1.000000" stroke="none" 
	d="
M196.284225,103.021698 
	C194.973999,102.885254 193.753510,103.377426 193.374634,102.135605 
	C193.019958,100.973038 193.934891,100.393684 194.854767,99.980530 
	C196.898712,99.062523 198.952164,98.946533 200.940002,100.114784 
	C201.661194,100.538643 202.379395,101.306282 201.734726,102.068810 
	C200.384628,103.665741 198.402039,102.780739 196.284225,103.021698 
z"/>
<path fill="#343539" opacity="1.000000" stroke="none" 
	d="
M360.204102,102.066460 
	C357.863556,103.443207 355.546539,102.948105 353.287720,103.018234 
	C352.478668,103.043350 351.529236,102.931358 351.440308,101.889763 
	C351.363586,100.991348 352.055145,100.371826 352.839996,100.091721 
	C355.672302,99.080910 358.537445,98.110039 360.204102,102.066460 
z"/>
</svg>