<svg version="1.1" id="Layer_1" xmlns="http://www.w3.org/2000/svg" xmlns:xlink="http://www.w3.org/1999/xlink" x="0px" y="0px"
	 width="100%" viewBox="0 0 200 200" enable-background="new 0 0 200 200" xml:space="preserve">
<path fill="#222127" opacity="1.000000" stroke="none" 
	d="
M177.000076,201.000000 
	C119.333397,201.000000 62.166637,200.960983 5.000292,201.097076 
	C1.575436,201.105225 0.896236,200.424728 0.903281,196.999863 
	C1.034939,133.000137 1.034926,68.999992 0.903299,5.000260 
	C0.896255,1.575644 1.575264,0.896237 5.000138,0.903282 
	C68.999870,1.034936 133.000015,1.034927 196.999741,0.903299 
	C200.424362,0.896255 201.103775,1.575264 201.096710,5.000138 
	C200.965057,68.999870 200.965088,133.000015 201.096710,196.999741 
	C201.103760,200.424362 200.448746,201.287964 196.994598,201.101013 
	C190.513596,200.750229 184.000076,201.000000 177.000076,201.000000 
z"/>
<path fill="#A1A8A9" opacity="1.000000" stroke="none" 
	d="
M88.901474,100.104218 
	C89.001167,102.878189 89.044144,105.207268 89.176666,107.531242 
	C89.242775,108.690392 91.422432,110.539566 88.260925,110.541222 
	C86.565849,110.542107 84.409065,110.784584 84.860146,107.705612 
	C85.187607,105.470444 85.227341,103.131088 84.085503,100.315269 
	C82.063248,102.395187 81.826546,104.922394 80.732048,106.954689 
	C80.117310,108.096184 79.813553,109.763550 78.295685,109.839005 
	C76.625786,109.921997 76.460602,108.182480 75.959023,107.009796 
	C74.927544,104.598236 73.951164,102.163101 72.478683,98.588356 
	C71.195839,102.175621 71.821281,104.703415 71.836845,107.165070 
	C71.844971,108.450821 72.272247,109.868050 70.481010,110.474777 
	C69.694252,110.741257 68.852707,111.305046 68.218300,110.580276 
	C67.263252,109.489166 68.456421,108.432060 68.528473,107.376106 
	C68.787903,103.574448 68.786728,99.752892 68.810059,95.938408 
	C68.817833,94.668373 66.790070,93.054802 69.147545,92.241470 
	C71.010422,91.598770 72.941994,92.355652 73.966293,94.027412 
	C75.259163,96.137505 76.132668,98.502502 77.222153,100.740456 
	C77.574341,101.463890 78.037163,102.133476 78.527077,102.958549 
	C80.842796,101.299965 81.172073,98.647003 82.454567,96.593674 
	C83.154305,95.473358 83.657211,94.175934 84.546738,93.242119 
	C85.643707,92.090569 87.243477,91.835388 88.732162,92.387650 
	C90.948235,93.209755 89.006622,94.562744 88.999809,95.671738 
	C88.991638,97.000427 88.923744,98.328743 88.901474,100.104218 
z"/>
<path fill="#9EA6A7" opacity="1.000000" stroke="none" 
	d="
M144.910522,102.758743 
	C145.246368,103.280159 145.492874,103.645355 145.408981,103.902969 
	C144.633301,106.285103 148.093719,109.153908 145.499496,110.811005 
	C142.086655,112.991013 134.933868,110.571190 132.893997,107.061996 
	C131.430801,104.544846 130.728592,105.258392 129.726074,107.305855 
	C128.132080,110.561340 125.353287,111.641144 121.891411,111.113380 
	C119.326385,110.722343 117.629250,109.093300 117.087570,106.684975 
	C116.309875,103.227226 116.897636,100.071228 120.699173,98.025215 
	C122.613586,98.206635 122.632713,99.570312 122.942604,100.737320 
	C122.891701,98.973030 122.338287,96.840889 125.714851,97.483002 
	C129.173004,99.950615 132.572189,100.185738 136.028595,98.485252 
	C136.886017,98.063393 137.930084,97.852173 138.891342,97.842537 
	C141.492828,97.816460 142.086823,96.544563 141.251740,94.327377 
	C140.732224,92.948013 139.678986,91.537613 142.227539,91.068047 
	C144.793701,90.595230 145.495743,91.889442 145.211243,94.536087 
	C144.254700,95.733513 144.459457,96.688194 144.913452,97.850861 
	C145.126068,98.053246 145.282257,98.505486 145.190491,98.726410 
	C144.082504,100.044823 144.539764,101.318390 144.910522,102.758743 
z"/>
<path fill="#9EA5A6" opacity="1.000000" stroke="none" 
	d="
M166.719666,103.837379 
	C165.591324,105.492897 164.685867,106.861694 163.738327,108.294121 
	C166.253738,110.168503 167.680954,107.311790 169.791641,107.229568 
	C170.540359,109.674179 169.986954,111.163734 167.198929,110.992149 
	C164.464523,110.823860 160.636627,112.352219 159.285309,110.161804 
	C157.953766,108.003456 161.488785,105.824402 162.725677,103.564766 
	C163.329819,102.461075 164.592987,101.700600 164.524429,100.244926 
	C163.732590,99.579948 162.932678,99.961937 162.125748,100.060684 
	C161.102402,100.185898 160.410812,102.037987 159.164383,100.687157 
	C158.905029,100.406067 158.972397,99.722946 159.048767,99.250908 
	C159.312317,97.621605 160.625610,97.772903 161.759674,97.826973 
	C164.366608,97.951256 167.035873,97.322716 169.627594,98.322075 
	C169.670273,100.636742 167.939651,101.905800 166.719666,103.837379 
z"/>
<path fill="#9CA3A4" opacity="1.000000" stroke="none" 
	d="
M97.852066,107.495071 
	C99.865685,109.757797 102.140388,108.159195 105.360497,108.841476 
	C101.568604,111.699249 98.399033,112.144829 95.456116,109.890793 
	C92.262474,107.444717 92.072792,103.870644 94.064507,100.519325 
	C95.944427,97.356110 99.010933,96.804466 102.304283,98.064384 
	C104.138206,98.765984 105.213127,100.354233 105.105095,102.355217 
	C104.975052,104.764008 102.740959,104.060501 101.357941,104.676292 
	C99.991371,105.284760 96.711578,103.185890 97.852066,107.495071 
z"/>
<path fill="#9DA3A5" opacity="1.000000" stroke="none" 
	d="
M180.750626,97.524490 
	C182.999359,98.881783 184.642700,100.366325 184.120712,102.879181 
	C183.713058,104.841621 181.733551,104.220818 180.399445,104.655136 
	C179.007324,105.108360 176.347198,103.798958 176.483093,106.294556 
	C176.611801,108.657852 178.927643,109.070473 181.134811,108.697655 
	C181.859390,108.575264 182.680405,107.891716 183.349731,108.859108 
	C180.262817,111.890518 176.153152,111.996399 173.682693,109.123337 
	C170.691132,105.644295 171.791412,101.002724 176.698944,97.705643 
	C178.183472,97.579872 179.276627,96.820320 180.750626,97.524490 
z"/>
<path fill="#9EA5A6" opacity="1.000000" stroke="none" 
	d="
M111.862564,110.992630 
	C109.654984,110.812859 107.383934,111.825096 108.505730,107.988724 
	C109.841873,103.419319 109.599976,98.435959 108.568207,93.758926 
	C108.173248,91.968559 107.496651,91.136482 109.820206,90.839073 
	C111.883263,90.575005 112.920715,91.127571 112.916603,93.417923 
	C112.908287,98.047775 113.109886,102.677689 113.142174,107.308151 
	C113.150909,108.561325 115.630234,110.474480 111.862564,110.992630 
z"/>
<path fill="#996D7A" opacity="1.000000" stroke="none" 
	d="
M37.671097,113.740639 
	C37.051964,116.010696 38.185890,118.137024 35.758984,120.355499 
	C35.758984,107.256630 35.758984,94.819420 35.758984,81.263474 
	C38.006649,83.929207 37.189816,86.085533 37.384472,88.414337 
	C39.434254,96.933731 38.638615,105.115799 37.671097,113.740639 
z"/>
<path fill="#849B99" opacity="1.000000" stroke="none" 
	d="
M55.302582,107.785110 
	C54.758244,109.436699 55.680771,111.199829 53.850342,112.836700 
	C51.797279,110.339424 53.609371,107.331062 52.539917,104.853462 
	C51.405117,104.344650 49.916195,107.520081 49.671577,105.499092 
	C49.260925,102.106339 47.102207,97.997147 51.591080,94.993042 
	C53.144650,94.888054 53.786396,95.745850 54.678146,96.773056 
	C54.927517,99.045250 54.974289,101.077248 55.012703,103.545074 
	C55.291370,104.270012 55.637390,104.436577 56.339226,104.461563 
	C57.035027,104.386131 57.422112,104.434639 58.055210,104.725090 
	C58.399017,105.392395 58.486504,105.908813 58.485847,106.678307 
	C57.769012,108.286087 56.700592,108.018044 55.302582,107.785110 
z"/>
<path fill="#9EA5A6" opacity="1.000000" stroke="none" 
	d="
M151.061920,102.608505 
	C151.580322,100.721443 148.761337,99.741142 150.242355,98.337112 
	C150.919235,97.695419 152.506546,97.592400 153.540359,97.837677 
	C155.622147,98.331573 154.710052,100.253143 154.845306,101.601936 
	C154.993378,103.078468 154.524689,104.720840 155.006958,106.041893 
	C157.099197,111.772949 153.995544,111.556938 149.626404,110.612724 
	C151.093109,108.146172 151.208084,105.583069 151.061920,102.608505 
z"/>
<path fill="#879F9D" opacity="1.000000" stroke="none" 
	d="
M31.399448,90.305634 
	C31.913141,88.175003 31.305796,86.295227 33.294495,83.461227 
	C33.294495,95.571625 33.294495,106.341805 33.294495,117.755905 
	C31.138931,116.115105 31.941265,114.353394 31.675871,112.506828 
	C29.610634,105.033394 30.295094,97.884552 31.399448,90.305634 
z"/>
<path fill="#29292E" opacity="1.000000" stroke="none" 
	d="
M125.823181,97.411858 
	C125.120216,97.897285 123.936218,97.859512 124.878212,99.429657 
	C126.009895,101.315987 126.348419,103.431458 126.129242,105.627663 
	C125.957901,107.344643 125.627274,109.159492 123.517120,109.197922 
	C121.487267,109.234886 121.077423,107.419540 120.511955,105.810181 
	C119.614021,103.254593 121.720718,101.139832 121.186935,98.304016 
	C122.298988,96.029823 123.831284,95.781441 125.823181,97.411858 
z"/>
<path fill="#89A19E" opacity="1.000000" stroke="none" 
	d="
M38.843044,88.460762 
	C40.698418,88.109268 40.957211,89.177986 40.954975,90.432457 
	C40.942036,97.695816 40.944435,104.959381 40.866592,112.222084 
	C40.860901,112.752960 40.262524,113.277496 39.537506,113.864288 
	C37.701591,112.619888 37.960499,110.870247 38.024437,109.246025 
	C38.291874,102.452530 37.322216,95.626213 38.843044,88.460762 
z"/>
<path fill="#879F9D" opacity="1.000000" stroke="none" 
	d="
M30.387871,111.634422 
	C28.845013,112.890762 28.204594,112.070053 28.195837,110.999657 
	C28.140570,104.244026 28.182453,97.487396 28.235462,90.731422 
	C28.241274,89.990860 28.858559,89.639702 29.857723,89.746407 
	C31.786777,96.999771 30.965172,104.113289 30.387871,111.634422 
z"/>
<path fill="#3F4348" opacity="1.000000" stroke="none" 
	d="
M30.389118,112.071205 
	C30.132677,104.998489 30.127958,97.943336 30.131580,90.416138 
	C30.474976,89.917366 30.810030,89.890640 31.397076,89.871719 
	C31.713308,96.980743 31.777550,104.081970 31.745033,111.650986 
	C31.312460,112.108780 30.976650,112.098778 30.389118,112.071205 
z"/>
<path fill="#89A19E" opacity="1.000000" stroke="none" 
	d="
M23.567081,106.569473 
	C23.047634,107.674637 22.993610,108.680046 22.474203,109.077934 
	C22.008175,109.434937 21.185709,108.747925 21.190662,108.029755 
	C21.224564,103.113968 21.279808,98.196663 21.483450,93.286285 
	C21.503828,92.794876 22.545034,92.715050 23.202259,93.651047 
	C24.913734,97.974625 24.989260,102.064896 23.567081,106.569473 
z"/>
<path fill="#819695" opacity="1.000000" stroke="none" 
	d="
M44.658455,102.555206 
	C44.424232,104.561020 44.875103,106.378380 42.947430,109.169418 
	C41.783730,103.320961 41.991302,98.752647 42.634876,93.742569 
	C45.231152,95.111931 44.273464,96.919655 44.473045,98.785446 
	C45.213669,100.136589 45.659607,101.127403 44.658455,102.555206 
z"/>
<path fill="#849B99" opacity="1.000000" stroke="none" 
	d="
M24.577593,95.314468 
	C25.271524,94.851898 26.094345,94.737755 26.096537,94.751793 
	C26.765173,99.032143 28.376062,103.381523 25.095951,107.266586 
	C23.335876,103.349998 24.014616,99.528488 24.577593,95.314468 
z"/>
<path fill="#34363A" opacity="1.000000" stroke="none" 
	d="
M180.892624,97.477951 
	C180.196396,97.909325 178.740448,97.685448 179.587250,99.312767 
	C180.156799,100.407272 181.778046,101.445480 180.113113,102.584770 
	C179.311188,103.133522 177.573242,103.256462 176.817780,102.745804 
	C174.924591,101.466072 177.270096,100.215065 177.261902,98.868980 
	C177.260880,98.702766 177.268875,98.536507 177.158081,97.964500 
	C178.174744,96.243080 179.409042,96.206131 180.892624,97.477951 
z"/>
<path fill="#313C3E" opacity="1.000000" stroke="none" 
	d="
M38.923866,88.132019 
	C39.092133,96.375031 39.057922,104.688423 39.079514,113.462715 
	C38.942825,113.926781 38.750328,113.929962 38.269577,113.950546 
	C36.912708,105.822098 37.767792,97.640160 37.741615,89.038895 
	C38.209576,88.456978 38.462933,88.324814 38.923866,88.132019 
z"/>
<path fill="#543A46" opacity="1.000000" stroke="none" 
	d="
M37.817062,88.641823 
	C37.969086,96.744949 37.976860,104.890999 37.982975,113.502495 
	C37.981316,113.967941 37.728855,114.109222 37.589188,114.146820 
	C37.379505,106.043175 37.309498,97.901932 37.319031,89.284744 
	C37.398575,88.808784 37.672821,88.684746 37.817062,88.641823 
z"/>
<path fill="#3F4348" opacity="1.000000" stroke="none" 
	d="
M24.641041,94.791321 
	C24.834951,98.652763 24.837923,102.399353 24.824039,106.612915 
	C24.555809,107.064621 24.304434,107.049362 23.678646,106.983887 
	C23.254736,102.906624 23.205238,98.879585 23.244030,94.399010 
	C23.704912,94.189148 24.077507,94.432808 24.641041,94.791321 
z"/>
<path fill="#849B99" opacity="1.000000" stroke="none" 
	d="
M17.595076,101.715759 
	C17.859396,100.049515 16.939991,98.367287 18.818954,97.469635 
	C20.647974,99.066978 19.691496,101.142151 19.770142,102.989075 
	C19.802458,103.747971 19.427279,104.751068 18.321516,104.264061 
	C17.453094,103.881599 17.675493,102.867462 17.595076,101.715759 
z"/>
<path fill="#9CA3A4" opacity="1.000000" stroke="none" 
	d="
M151.412811,91.920761 
	C153.288254,90.970901 154.643829,91.174294 154.927628,93.145416 
	C155.123657,94.506935 154.111023,95.290535 152.792404,95.196724 
	C150.767334,95.052643 150.392090,93.851135 151.412811,91.920761 
z"/>
<path fill="#849B99" opacity="1.000000" stroke="none" 
	d="
M45.603081,99.274315 
	C45.948898,98.580711 45.992710,98.102745 46.202843,98.012627 
	C48.486244,97.033455 48.243553,99.112473 47.913647,99.892021 
	C47.364227,101.190239 49.836605,104.111160 45.932152,103.442131 
	C45.098534,102.046814 44.890656,100.903839 45.603081,99.274315 
z"/>
<path fill="#7C918F" opacity="1.000000" stroke="none" 
	d="
M55.300446,107.901154 
	C55.925613,107.576607 56.860767,107.268501 58.096817,106.945892 
	C58.630322,107.877686 59.117878,108.987488 58.004120,109.587776 
	C56.306980,110.502480 56.385735,108.525246 55.300446,107.901154 
z"/>
<path fill="#89A19E" opacity="1.000000" stroke="none" 
	d="
M61.023930,98.218292 
	C62.390640,100.151215 62.363220,102.008820 61.006138,104.791191 
	C59.703602,102.004272 59.647907,100.149246 61.023930,98.218292 
z"/>
<path fill="#7C918F" opacity="1.000000" stroke="none" 
	d="
M54.951984,96.654205 
	C54.017178,96.467957 53.153610,95.922653 52.123310,95.111755 
	C52.420498,93.952744 53.043663,92.960571 54.125309,93.318840 
	C55.570877,93.797653 54.933247,95.226044 54.951984,96.654205 
z"/>
<path fill="#A1A8A9" opacity="1.000000" stroke="none" 
	d="
M58.377556,104.437042 
	C57.902668,104.899261 57.493809,104.922531 56.778008,104.956039 
	C56.302052,104.938484 56.133038,104.910683 56.053883,104.642181 
	C56.391979,101.729904 56.640217,99.058327 56.996109,95.228081 
	C59.162537,98.750366 58.150108,101.469879 58.377556,104.437042 
z"/>
<path fill="#505B5D" opacity="1.000000" stroke="none" 
	d="
M45.484344,98.937408 
	C45.844639,100.010269 45.861427,101.141975 45.853577,102.697617 
	C45.599998,103.085091 45.371056,103.048622 44.805412,102.925049 
	C44.406410,101.785156 44.344105,100.732353 44.375465,99.430984 
	C44.693031,99.120354 44.916931,99.058296 45.484344,98.937408 
z"/>
<path fill="#AFB9B7" opacity="1.000000" stroke="none" 
	d="
M145.234833,102.567398 
	C144.421082,101.872009 144.045731,100.744072 144.955688,99.225555 
	C145.171326,100.021523 145.243942,101.095726 145.234833,102.567398 
z"/>
<path fill="#AFB9B7" opacity="1.000000" stroke="none" 
	d="
M145.202866,97.667679 
	C144.649902,97.222824 144.291595,96.380424 144.987457,95.192490 
	C145.169205,95.721512 145.224426,96.501816 145.202866,97.667679 
z"/>
<path fill="#7C918F" opacity="1.000000" stroke="none" 
	d="
M55.841675,104.342987 
	C56.143749,104.401482 56.341801,104.662537 56.406433,104.814407 
	C56.123386,104.775818 55.775707,104.585358 55.216187,104.187897 
	C55.182762,104.082100 55.361183,104.183296 55.841675,104.342987 
z"/>
<path fill="#2C2C31" opacity="1.000000" stroke="none" 
	d="
M137.172150,100.598656 
	C139.878311,98.734802 141.344406,99.760445 141.452957,102.336433 
	C141.549606,104.629593 142.792435,107.597862 139.697601,108.931404 
	C137.946716,109.685860 136.910034,108.140251 136.425354,106.669777 
	C135.784058,104.724098 135.806152,102.730530 137.172150,100.598656 
z"/>
<path fill="#34363A" opacity="1.000000" stroke="none" 
	d="
M98.349129,99.697418 
	C100.717041,99.228523 102.095245,100.084747 101.427933,102.160744 
	C100.964500,103.602470 98.982155,103.288620 97.955475,102.862892 
	C96.124916,102.103821 97.142029,100.881935 98.349129,99.697418 
z"/>
</svg>